Coordinates																																					
version=1																																					
nRows=30																																					
nColumns=38																																					
inDegrees=yes																																					
																																					
"Units are S.I. units (second, meters, Newtons, ...)"																																					
Angles are in degrees.																																					
																																					
endheader																																					
time	pelvis_tilt	pelvis_list	pelvis_rotation	pelvis_tx	pelvis_ty	pelvis_tz	hip_flexion_r	hip_adduction_r	hip_rotation_r	knee_angle_r	ankle_angle_r	subtalar_angle_r	mtp_angle_r	hip_flexion_l	hip_adduction_l	hip_rotation_l	knee_angle_l	ankle_angle_l	subtalar_angle_l	mtp_angle_l	lumbar_extension	lumbar_bending	lumbar_rotation	arm_flex_r	arm_add_r	arm_rot_r	elbow_flex_r	pro_sup_r	wrist_flex_r	wrist_dev_r	arm_flex_l	arm_add_l	arm_rot_l	elbow_flex_l	pro_sup_l	wrist_flex_l	wrist_dev_l
0.75	3.75300759	-1.01508398	3.24751763	1.17937662	0.02658278	0.04533017	10.74446906	4.71085215	-1.69918698	-15.00505534	-1.03729839	-2.73073281	6.92042716	2.92206028	-2.38496528	0.15134163	-62.72708836	-20.80479103	1.81450938	22.9748058	-17.36728203	3.4061277	-2.84867462	-2.89642836	-19.18851918	9.32299475	40.92988833	1.27201398	0	0	1.39009609	-15.13358634	3.80775387	47.03654104	0.24575459	0	0
0.76	3.73949485	-0.83201211	3.08657388	1.19140549	0.02865518	0.04331733	9.82774377	4.63740449	-1.64080061	-14.74157429	-0.40724815	-2.13126627	6.88745489	4.75254783	-2.26498361	-0.03359398	-64.49602994	-19.12549801	2.62546283	23.12431406	-17.4988399	3.11582153	-3.07103804	-1.75211292	-19.11610242	9.35029666	41.88864614	1.29356685	0	0	1.01785337	-15.34323975	3.84910622	45.61100465	0.24664138	0	0
0.77	3.76881276	-0.60055315	3.02091284	1.20430206	0.03097316	0.04003683	8.80407548	4.48276519	-1.63560288	-14.35424765	-0.16235718	-2.02453995	6.85825051	6.47194781	-1.99022402	-0.08182714	-65.90415722	-17.75837165	2.3810988	23.26643271	-17.5528115	2.70405834	-2.66116911	-1.16991384	-19.04639753	9.36730274	42.29825331	1.30322096	0	0	0.54736027	-15.41280466	3.85483638	45.01138504	0.24436739	0	0
0.78	3.67308709	-0.48638183	2.99155718	1.21487395	0.03292928	0.0390017	7.87778643	4.4331411	-1.671703	-13.87779937	0.32966381	-1.4038928	6.65952497	8.34879748	-1.93392117	-0.16992983	-67.10485543	-16.54711509	2.5545012	22.83021724	-17.53684574	2.592097	-3.38252441	0.02292339	-18.97127334	9.43462533	43.75012646	1.32194571	0	0	0.03855734	-15.60386394	3.86329473	42.83708162	0.25768727	0	0
0.79	3.2595767	-0.22525755	2.86122136	1.21925018	0.03402766	0.03500865	7.48113314	4.14514915	-2.04204383	-13.70711968	0.98459204	-0.54790048	5.66940408	10.55303841	-1.5957541	-0.32312489	-68.06810271	-15.11609842	2.3324136	21.22170981	-17.12210703	2.17081817	-2.90509711	0.21152533	-19.38342959	10.11582928	45.30151124	1.18783967	0	0	0.57875684	-15.23769294	3.42196285	40.13646835	0.38286946	0	0
0.8	3.24821015	-0.08100939	2.78134294	1.23125531	0.03606316	0.03338385	6.41930587	4.07717496	-2.00835661	-13.12157341	1.11334732	-0.44954845	5.63321227	12.18730183	-1.46740703	-0.48319214	-68.64365041	-14.15971186	1.99828352	21.32360441	-17.14571352	1.80999916	-2.34688343	0.82142693	-19.38116209	10.0881432	45.66655759	1.20550055	0	0	0.10906141	-15.37105496	3.38779458	39.8155939	0.38430493	0	0
0.81	3.18771988	0.03829921	2.57918049	1.24194297	0.03771989	0.03220805	5.49441571	4.02542718	-1.91332502	-12.63930066	1.45465139	0.02558446	5.5154058	13.83605264	-1.38792787	-0.80882614	-68.95537896	-13.2048496	1.32122363	21.24844833	-17.2315226	1.58329395	-2.46699535	1.79525792	-19.39838045	10.02879952	46.786522	1.24244041	0	0	-0.63246143	-15.59810878	3.32109278	38.9625576	0.39375245	0	0
0.82	3.20034539	0.38645386	2.23276211	1.25462269	0.03966391	0.02695854	4.33350049	3.72452979	-1.76747232	-11.94164815	1.75181484	0.38415748	5.32653687	15.16539755	-1.08490494	-1.33883657	-68.81543533	-12.2323664	0.82261982	21.1962183	-17.22439994	1.09003793	-2.33560979	2.48477686	-19.39816854	10.0583988	47.90033931	1.25745243	0	0	-1.44000728	-15.80644957	3.17936504	38.20971414	0.41604436	0	0
0.83	3.10432257	0.49079918	2.19056695	1.26495521	0.04086401	0.02580019	3.3568103	3.67919556	-1.89514164	-11.29524566	1.91880456	0.47276084	5.28592961	16.73088191	-0.94668659	-1.47111289	-68.63130406	-11.27064285	0.49729422	21.28191591	-17.09651333	0.80583166	-1.84417162	3.11063174	-19.45862776	10.01816804	48.3811223	1.27787359	0	0	-1.83591836	-15.98988558	3.11096881	37.9480378	0.42477048	0	0
0.84	2.95670867	0.73507331	1.89013596	1.27414336	0.0420339	0.02226229	2.48184765	3.45596798	-1.86191673	-10.71978747	2.31522479	1.05384959	5.04444934	18.19373159	-0.77592014	-1.98507725	-68.04184651	-10.4803022	0.08141396	20.90868668	-17.06432461	0.55464877	-2.14557431	3.97320989	-19.49856924	10.05450349	50.36261592	1.3044245	0	0	-2.85488768	-16.2298107	2.88342575	37.14498464	0.46204454	0	0
0.85	2.82384452	0.80557177	1.87514726	1.28365557	0.04279697	0.02161156	1.51294835	3.44695574	-1.87518513	-9.99275471	2.41125132	1.11870958	4.99849073	19.65161455	-0.65613181	-2.07020405	-67.34281926	-9.42005953	-0.10077515	21.03472599	-16.91338173	0.24615973	-1.64333943	4.5462581	-19.62687347	10.00309955	50.8081056	1.32461772	0	0	-3.22907898	-16.43734813	2.80161728	36.95634836	0.47303049	0	0
0.86	2.90703273	0.93688558	1.68395653	1.29691056	0.04391284	0.01990902	0.34062872	3.34442439	-1.92606086	-9.32648571	2.81352442	1.567301	4.17273743	20.70262293	-0.55268054	-2.41017113	-66.2532878	-8.32580285	-0.1845356	20.17455997	-17.2494459	0.11579832	-1.9662993	4.63768895	-20.29730078	10.43793236	54.42906858	1.28308723	0	0	-4.43772859	-16.67498499	1.97488522	36.82640462	0.62472904	0	0
0.87	2.70975389	1.03305152	1.31873303	1.30518989	0.04410986	0.01904785	-0.46604116	3.28190241	-1.67357155	-8.74609754	3.07447391	1.82731177	4.0667131	21.94087287	-0.55033431	-2.89752283	-64.89201504	-7.43484587	-0.31010802	20.15627718	-17.08240641	-0.20474952	-1.3770023	5.28945656	-20.41504099	10.41959892	55.16835808	1.2999451	0	0	-5.00383422	-16.84225221	1.8023652	36.66558994	0.650986	0	0
0.88	2.57660696	1.16342718	1.04361537	1.3152683	0.04434229	0.0173099	-1.43526818	3.15063669	-1.65603032	-8.07971784	3.40291746	2.28339642	3.88667917	22.92188035	-0.48421793	-3.33718601	-63.17227359	-6.65887564	-0.09786357	19.95882627	-16.8808742	-0.40106411	-1.1895436	5.78346548	-20.53313633	10.46416488	56.65344664	1.31359962	0	0	-5.92625211	-17.06169364	1.51049306	36.54555311	0.69450807	0	0
0.89	2.63019661	1.19496157	0.99450005	1.32803708	0.04451625	0.01703976	-2.58881334	3.13223898	-1.97304952	-7.37214336	3.71148008	2.87680269	3.40368727	23.70819762	-0.40551344	-3.45872262	-61.28194644	-5.82371053	0.00542462	19.25598688	-17.15402318	-0.51931462	-1.15810034	5.98346832	-21.00062955	10.70953448	59.15860156	1.29866191	0	0	-6.80178136	-17.27825544	0.87218443	37.11126165	0.80219943	0	0
0.9	2.39000659	1.08693464	0.94555747	1.33561803	0.04373778	0.01921036	-3.39375337	3.28714787	-2.03544207	-6.72924223	3.96920558	2.88630484	3.42899066	24.74954566	-0.4782159	-3.55364154	-59.18875967	-5.46935136	0.03752574	19.24992169	-16.87662452	-0.47968987	-0.58590385	6.56641395	-21.15854009	10.61104275	59.47913783	1.32239842	0	0	-7.15065761	-17.4588286	0.80614567	36.99385872	0.80935504	0	0
0.91	2.37417384	1.09461781	0.42154297	1.34731813	0.04345306	0.01985835	-4.35951513	3.2640975	-1.69569085	-6.24668212	4.30929542	3.39286981	3.29815708	25.227276	-0.67264702	-4.18446136	-56.60146988	-4.85747226	0.74804733	19.04651614	-16.9007906	-0.66796546	-0.28219706	7.20806911	-21.4357597	10.61895397	61.05286167	1.34450399	0	0	-8.16303084	-17.64081967	0.59173703	36.99093921	0.83245634	0	0
0.92	2.12283967	0.92090623	0.41774625	1.35479287	0.04212646	0.02290222	-5.1543261	3.47114044	-1.79489852	-5.62276191	4.50711207	3.41957065	3.30731527	26.01651953	-0.75173569	-4.16205415	-53.96000394	-4.50993321	0.78636493	18.99482951	-16.58821243	-0.50699714	0.17301686	7.74356165	-21.60369648	10.53250867	61.45968825	1.36665441	0	0	-8.45044946	-17.85020122	0.51537507	36.94695863	0.84174317	0	0
0.93	2.703995	0.8938021	0.24450446	1.37728376	0.04247544	0.0235209	-6.93514679	3.49264322	-1.970917	-4.87319527	4.81555425	4.02304218	2.69813685	25.62100539	-0.80124102	-4.4714747	-50.87695325	-3.87899637	1.39563911	17.6697118	-17.5436517	-0.54795153	0.04048152	7.67083093	-22.58864489	10.92831178	65.29398352	1.34545084	0	0	-9.94361551	-18.11264284	-0.12336748	38.27289704	0.92303549	0	0
0.94	2.39226517	0.60479844	0.25172098	1.38397044	0.04065506	0.02848034	-7.64758523	3.81676085	-1.94791022	-4.3342316	5.09673733	4.09877848	2.74289462	26.17424551	-0.98014456	-4.42196171	-47.66451759	-3.64454113	1.5173659	17.60140982	-17.08342579	-0.21994028	0.49754681	8.14177218	-22.71047304	10.83572027	65.59184359	1.36569979	0	0	-10.20364337	-18.27819148	-0.18798091	38.22629812	0.93040866	0	0
0.95	2.27421974	0.34195676	-0.2566926	1.39389457	0.0391552	0.03370137	-8.55088464	4.0149036	-1.56634485	-3.7700651	5.22099431	4.5605304	2.67280793	26.28894972	-1.45401532	-5.06453467	-44.16084994	-3.29982067	1.98827895	17.34049209	-17.08240877	-0.08897566	0.91938572	8.79273932	-23.08941187	10.6728701	66.56761196	1.40383746	0	0	-11.05606614	-18.33913667	-0.27995293	38.18742912	0.93214286	0	0
0.96	2.01253809	-0.03189109	-0.18763119	1.40173631	0.03702185	0.04021217	-9.37100127	4.42866133	-1.52324209	-3.1954304	5.56973657	4.62916377	2.72887183	26.54257398	-1.70581776	-4.98381222	-40.51713899	-3.15099415	2.08186148	17.1903648	-16.5899894	0.27001027	1.29217066	9.19524135	-23.14668024	10.61925013	66.98483708	1.42016578	0	0	-11.31302576	-18.53517297	-0.35440293	38.19100662	0.94068024	0	0
0.97	2.77595321	-0.10732871	-0.55387888	1.42802987	0.03686593	0.04194415	-11.4360391	4.42003133	-1.10557471	-2.35132891	6.02317635	5.00180048	2.45723425	25.33571607	-1.94263121	-5.81315065	-36.44263861	-2.71415247	2.64383532	15.95877795	-17.67319455	0.26194429	1.23849458	9.47971835	-23.55161061	10.79584405	69.89560843	1.43372413	0	0	-12.57785208	-18.65731291	-0.65264683	38.95727938	0.96409455	0	0
0.98	2.45525817	-0.61245054	-0.43130887	1.4351719	0.03427345	0.05045411	-12.28418495	4.94836384	-1.07675224	-1.62890465	6.01410579	5.1262579	2.42042039	25.42599393	-2.3145309	-5.88425604	-32.45872134	-2.9257152	2.67605391	15.56356756	-17.16084316	0.73623714	1.54336318	9.71142347	-23.95057405	10.65636625	70.29650368	1.45614189	0	0	-13.05093415	-18.79792918	-0.75234221	39.00596549	0.97293604	0	0
0.99	3.03411165	-0.81274446	-0.50332904	1.45825993	0.03337828	0.05381969	-14.08611576	5.09595039	-0.88211992	-0.97147579	6.28859406	5.35939797	2.11066954	24.2836596	-2.47654227	-6.44608108	-28.17891603	-2.69690249	3.52057837	13.59220949	-18.00724915	0.89826926	1.65214541	9.44306927	-24.66242052	10.86289181	72.98969602	1.45151606	0	0	-14.0197573	-19.06274435	-1.29032889	40.34971789	1.03958078	0	0
1	2.62124558	-1.259409	-0.40196499	1.46389659	0.03029313	0.06106211	-14.70038161	5.53008502	-0.73050266	-0.55486028	6.56535065	5.47885354	2.18243886	24.28008937	-2.69721076	-6.32002037	-24.03222111	-2.74433748	3.77221026	13.4111049	-17.36798139	1.43609416	1.94247695	9.71827168	-24.85268628	10.73277506	73.19796853	1.47178414	0	0	-14.32568787	-19.1323016	-1.33897201	40.31372198	1.04302109	0	0
1.01	2.99565133	-1.4704026	-0.68078014	1.4837036	0.02888161	0.06464667	-16.24169565	5.60202978	-0.30342358	0.01328222	6.74008766	5.72540747	2.11806307	23.21999666	-2.92881828	-7.31821474	-19.80916583	-2.59252121	5.48622149	11.83072818	-17.90562572	1.54015304	2.29267533	9.62974024	-25.48273976	10.66894265	74.97196184	1.4881969	0	0	-15.35105341	-19.09001756	-1.78715898	41.10637073	1.09859006	0	0
1.02	2.82918051	-1.72676593	-0.94794007	1.49410862	0.02632069	0.06876273	-17.02804381	5.69920614	0.14697277	0.206104	7.14592362	6.00818632	2.2670554	22.77568558	-3.05964084	-7.74150224	-15.81978668	-2.33142682	6.35976217	11.24143174	-17.60964501	1.77909464	2.58155683	9.82842136	-25.6752898	10.54852557	75.66297817	1.50759651	0	0	-15.91731002	-19.00723145	-1.9486937	41.22146536	1.11700744	0	0
1.03	2.47917852	-2.09627774	-0.89981154	1.50108809	0.02336571	0.07446382	-17.4893455	6.00788079	0.34845936	0.18353863	7.43395801	6.09984055	2.37093719	22.64511049	-3.12316281	-7.31177475	-12.17984137	-1.97964972	6.81461442	11.20410073	-17.10445052	2.18482934	2.74576663	9.98182638	-25.78615218	10.4722595	75.80947923	1.51918412	0	0	-16.08947714	-19.11162155	-2.00734946	41.20139618	1.12423282	0	0
1.04	2.95187573	-2.19593187	-1.28822356	1.52284329	0.02216093	0.07585825	-18.84535707	5.86314416	0.95222491	0.16223103	7.77037355	6.30115155	2.72907815	21.45510943	-3.11952333	-7.95611012	-8.71029056	-1.38179242	8.28675765	10.52887374	-17.67850722	2.20789724	3.12981985	10.13613397	-26.1476593	10.44528159	76.74400066	1.52773278	0	0	-16.67366007	-18.91693288	-2.23767936	41.33874414	1.15523062	0	0
